<svg width="41" height="40" viewBox="0 0 41 40" fill="none" xmlns="http://www.w3.org/2000/svg">
<path d="M37.1667 26.9834C37.1667 33.05 33.55 36.6667 27.4833 36.6667H25.5C24.5833 36.6667 23.8333 35.9167 23.8333 35V25.3834C23.8333 24.9334 24.2 24.55 24.65 24.55L27.5833 24.5C27.8167 24.4834 28.0167 24.3167 28.0667 24.0834L28.65 20.9C28.6613 20.8279 28.6569 20.7541 28.6369 20.6839C28.617 20.6136 28.5821 20.5485 28.5345 20.4931C28.487 20.4376 28.428 20.3931 28.3616 20.3627C28.2952 20.3322 28.223 20.3165 28.15 20.3167L24.6 20.3667C24.1333 20.3667 23.7667 20 23.75 19.55L23.6833 15.4667C23.6833 15.2 23.9 14.9667 24.1833 14.9667L28.1833 14.9C28.4667 14.9 28.6833 14.6834 28.6833 14.4L28.6167 10.4C28.6167 10.1167 28.4 9.90004 28.1167 9.90004L23.6167 9.96671C22.9598 9.97669 22.3113 10.1162 21.7084 10.3772C21.1055 10.6383 20.5601 11.0157 20.1033 11.488C19.6466 11.9602 19.2875 12.5179 19.0467 13.1292C18.8059 13.7404 18.6881 14.3932 18.7 15.05L18.7833 19.6334C18.8 20.1 18.4333 20.4667 17.9667 20.4834L15.9667 20.5167C15.6833 20.5167 15.4667 20.7334 15.4667 21.0167L15.5167 24.1834C15.5167 24.4667 15.7333 24.6834 16.0167 24.6834L18.0167 24.65C18.4833 24.65 18.85 25.0167 18.8667 25.4667L19.0167 34.9667C19.0333 35.9 18.2833 36.6667 17.35 36.6667H13.5167C7.45 36.6667 3.83334 33.05 3.83334 26.9667V13.0167C3.83334 6.95004 7.45 3.33337 13.5167 3.33337H27.4833C33.55 3.33337 37.1667 6.95004 37.1667 13.0167V26.9834Z" fill="#E9E9E9"/>
</svg>
