<svg width="56" height="56" viewBox="0 0 56 56" fill="none" xmlns="http://www.w3.org/2000/svg">
<path d="M27.5037 24.6345C27.1461 22.9242 26.5478 21.3024 25.7457 19.8062L25.2896 20.5961C26.3639 22.7414 27.0072 25.1399 27.1061 27.6781C25.5931 26.7242 24.2751 25.5712 23.1666 24.2733L22.76 24.9776C23.2295 25.5108 23.7336 26.0197 24.2713 26.5005C23.586 26.2754 22.8933 26.0933 22.1967 25.9533L21.7901 26.6575C23.4684 26.9686 25.1259 27.5336 26.7085 28.3668C24.4609 29.5503 22.0621 30.1925 19.6671 30.3348L19.2109 31.1248C20.9077 31.0713 22.6113 30.7786 24.2712 30.2331C23.0016 31.3686 21.9194 32.6601 21.0369 34.0607H21.9534C23.2656 32.103 24.9963 30.3858 27.1061 29.0556C27.038 30.8025 26.7121 32.4832 26.1653 34.0607H26.9767C27.1876 33.4218 27.3641 32.7674 27.5037 32.0993C27.6434 32.7674 27.8199 33.4218 28.0307 34.0607H28.8421C28.2954 32.4832 27.9695 30.8025 27.9014 29.0556C30.011 30.3858 31.7416 32.103 33.0539 34.0607H33.9704C33.088 32.6603 32.0059 31.3689 30.7367 30.2336C32.3963 30.779 34.0997 31.0716 35.7961 31.1252L35.34 30.3352C32.9451 30.1929 30.5464 29.5507 28.2989 28.3672C29.8813 27.5338 31.5386 26.9688 33.2169 26.6577L32.8103 25.9534C32.1137 26.0934 31.421 26.2756 30.7358 26.5008C31.2734 26.0199 31.7775 25.5111 32.247 24.9778L31.8404 24.2735C30.7319 25.5714 29.4141 26.7242 27.9014 27.6781C28.0004 25.1401 28.6435 22.7418 29.7176 20.5968L29.2615 19.8067C28.4596 21.3028 27.8613 22.9244 27.5037 24.6345Z" fill="#120F0A"/>
<path fill-rule="evenodd" clip-rule="evenodd" d="M27.5067 0C30.762 4.32026 31.2255 9.72548 28.2872 14.4726L39.8638 34.5239C40.0104 34.5194 40.1561 34.5172 40.3012 34.5172C45.6763 34.5172 49.9488 37.5875 52.007 42.4357L52.0037 42.4414C51.4019 42.5153 50.8062 42.552 50.2184 42.552C45.5631 42.552 41.4278 40.2494 39.0817 35.8844H15.9254C13.5793 40.2494 9.44366 42.5523 4.78859 42.5523C4.20053 42.5523 3.60544 42.5156 3.00334 42.4417L3 42.4361C5.0579 37.5878 9.33109 34.5175 14.7055 34.5172C14.8506 34.5172 14.9963 34.5194 15.1429 34.5239L26.7198 14.472C23.7816 9.72512 24.2451 4.32011 27.5004 0H27.5067ZM27.5034 2.45652C28.4045 4.12014 28.8846 5.90306 28.9057 7.69835C28.9197 8.90989 28.7252 10.1191 28.3276 11.2915C28.115 11.9187 27.8438 12.5357 27.5168 13.1382L27.5034 13.1149L27.4902 13.1376C27.1634 12.5353 26.8923 11.9185 26.6797 11.2915C26.2818 10.1188 26.0873 8.90989 26.1017 7.69835C26.122 5.90306 26.6022 4.11981 27.5034 2.45652ZM38.3345 34.5479L27.5034 15.7879L16.6723 34.5479H38.3345ZM14.3574 35.8844L14.3726 35.8581C13.3023 35.8867 12.2666 36.0521 11.2897 36.3509C10.2442 36.6707 9.26087 37.1448 8.36645 37.7599C7.47964 38.3697 6.67877 39.1188 5.98578 39.9872C5.67804 40.3725 5.3917 40.7814 5.12806 41.2111C6.14983 41.1838 7.14321 41.0317 8.0858 40.7587C9.12956 40.4563 10.1119 40.0046 11.0054 39.4165C11.9159 38.8171 12.7372 38.0733 13.4465 37.2063C13.7839 36.7939 14.0968 36.3525 14.3839 35.8844H14.3574ZM40.6227 35.8844C40.9099 36.3525 41.2228 36.7939 41.5605 37.2063C42.2699 38.0737 43.0908 38.8171 44.0013 39.4165C44.8947 40.0046 45.8771 40.4563 46.9209 40.7587C47.8635 41.0317 48.8569 41.1838 49.879 41.2111C49.6153 40.7814 49.3287 40.3725 49.0212 39.9872C48.3279 39.1192 47.527 38.3697 46.6406 37.7599C45.7461 37.1448 44.7624 36.6707 43.7173 36.3509C42.7401 36.0518 41.7045 35.8863 40.6341 35.8581L40.6493 35.8844H40.6227Z" fill="#120F0A"/>
<path d="M19.239 12.9014C21.2052 14.1113 22.9232 15.6859 24.2989 17.5311L23.8789 18.2586C22.5716 16.4335 20.9196 14.8721 19.018 13.6693C19.1393 16.6691 20.0357 19.6032 21.6246 22.1632L21.1913 22.9137C19.3779 20.134 18.3628 16.9057 18.2466 13.6057C18.5712 13.3607 18.9021 13.1259 19.239 12.9014Z" fill="#120F0A"/>
<path d="M10.1457 27.7021C13.0485 26.1721 16.3315 25.4472 19.625 25.6267L19.1917 26.3772C16.1805 26.2811 13.1914 26.9717 10.533 28.3667C12.5254 29.4123 14.7035 30.0622 16.9375 30.2818L16.5174 31.0093C14.2525 30.743 12.0494 30.0525 10.0334 28.9717C10.0578 28.5484 10.0951 28.125 10.1457 27.7021Z" fill="#120F0A"/>
<path d="M18.2471 43.1157C18.3296 40.8167 18.8483 38.5527 19.7693 36.4512H20.6119C19.654 38.526 19.1105 40.776 19.0181 43.0644C21.5899 41.4377 23.7052 39.1548 25.1286 36.4512H25.9922C24.516 39.4126 22.2543 41.9135 19.4804 43.6811C19.0622 43.5058 18.6509 43.3172 18.2471 43.1157Z" fill="#120F0A"/>
<path d="M35.5266 43.6809C32.7528 41.9134 30.4912 39.4125 29.0151 36.4512H29.8787C31.3021 39.1549 33.4173 41.4378 35.9893 43.0644C35.8968 40.776 35.3532 38.526 34.3953 36.4512H35.2379C36.1589 38.5525 36.6777 40.8164 36.7603 43.1154C36.3564 43.3168 35.945 43.5055 35.5266 43.6809Z" fill="#120F0A"/>
<path d="M44.9731 28.9722C42.9572 30.053 40.7543 30.7434 38.4896 31.0098L38.0696 30.2823C40.3034 30.0626 42.4815 29.4127 44.4738 28.3672C41.8154 26.972 38.8263 26.2813 35.8151 26.3774L35.3818 25.6269C38.6752 25.4474 41.9582 26.1723 44.8608 27.7024C44.9114 28.1254 44.9488 28.5489 44.9731 28.9722Z" fill="#120F0A"/>
<path d="M36.7609 13.6061C36.6445 16.9061 35.6291 20.1344 33.8157 22.914L33.3825 22.1634C34.9714 19.6035 35.8681 16.6693 35.9895 13.6693C34.0877 14.8722 32.4356 16.4338 31.1283 18.2591L30.7083 17.5316C32.0839 15.6863 33.802 14.1116 35.7682 12.9016C36.1052 13.1261 36.4363 13.361 36.7609 13.6061Z" fill="#120F0A"/>
<path d="M40.9783 40.8682C37.3163 43.8902 32.6223 45.7049 27.5034 45.7049C22.3845 45.7049 17.6902 43.8902 14.0286 40.8682L12.9014 42.2339C16.8686 45.5083 21.9583 47.4758 27.5034 47.4758C33.0486 47.4758 38.1378 45.5083 42.1054 42.234L40.9783 40.8682Z" fill="#120F0A"/>
<path d="M42.5825 19.5863C40.023 15.1531 36.1047 11.9953 31.6562 10.3351L32.2755 8.67603C37.0951 10.4748 41.3436 13.8986 44.1161 18.7009C46.8887 23.5034 47.7296 28.8945 46.8775 33.9675L45.1311 33.6742C45.9175 28.992 45.142 24.0197 42.5825 19.5863Z" fill="#120F0A"/>
<path d="M12.4238 19.5866C14.9832 15.1535 18.902 11.9953 23.3503 10.3351L22.7311 8.67603C17.9114 10.4748 13.6627 13.899 10.8901 18.7012C8.11758 23.5034 7.27665 28.8948 8.12871 33.9679L9.87512 33.6745C9.08868 28.9923 9.86428 24.0197 12.4238 19.5866Z" fill="#120F0A"/>
</svg>
