<svg width="41" height="40" viewBox="0 0 41 40" fill="none" xmlns="http://www.w3.org/2000/svg">
<path d="M27.4833 3.33337H13.5167C7.44999 3.33337 3.83333 6.95004 3.83333 13.0167V26.9667C3.83333 33.05 7.44999 36.6667 13.5167 36.6667H27.4667C33.5333 36.6667 37.15 33.05 37.15 26.9834V13.0167C37.1667 6.95004 33.55 3.33337 27.4833 3.33337ZM20.5 26.4667C16.9333 26.4667 14.0333 23.5667 14.0333 20C14.0333 16.4334 16.9333 13.5334 20.5 13.5334C24.0667 13.5334 26.9667 16.4334 26.9667 20C26.9667 23.5667 24.0667 26.4667 20.5 26.4667ZM30.3667 11.4667C30.2833 11.6667 30.1667 11.85 30.0167 12.0167C29.85 12.1667 29.6667 12.2834 29.4667 12.3667C29.1633 12.4955 28.8285 12.5309 28.505 12.4686C28.1814 12.4062 27.8838 12.2489 27.65 12.0167C27.5 11.85 27.3833 11.6667 27.3 11.4667C27.2144 11.2664 27.1691 11.0512 27.1667 10.8334C27.1667 10.6167 27.2167 10.4 27.3 10.2C27.3833 9.98337 27.5 9.81671 27.65 9.65004C28.0333 9.26671 28.6167 9.08337 29.15 9.20004C29.2667 9.21671 29.3667 9.25004 29.4667 9.30004C29.5667 9.33337 29.6667 9.38337 29.7667 9.45004C29.85 9.50004 29.9333 9.58337 30.0167 9.65004C30.1667 9.81671 30.2833 9.98337 30.3667 10.2C30.45 10.4 30.5 10.6167 30.5 10.8334C30.5 11.05 30.45 11.2667 30.3667 11.4667Z" fill="#E9E9E9"/>
</svg>
