<svg width="41" height="40" viewBox="0 0 41 40" fill="none" xmlns="http://www.w3.org/2000/svg">
<path d="M20.5 3.33337C11.3 3.33337 3.83333 10.25 3.83333 18.7667C3.83333 23.6 6.23333 27.9 9.96667 30.7334V33.8167C9.96667 35.1 11.3333 35.9 12.45 35.2667L15.55 33.5167C17.1167 33.9667 18.7667 34.2 20.4833 34.2C29.6833 34.2 37.15 27.2834 37.15 18.7667C37.1667 10.25 29.7 3.33337 20.5 3.33337ZM26.35 17.4L22.1833 22.3834C21.9167 22.7 21.4833 22.7667 21.1333 22.5667L19.45 21.5834C19.2617 21.4807 19.0421 21.451 18.8333 21.5L15.4833 22.3167C15.3126 22.3566 15.1336 22.3418 14.9717 22.2745C14.8098 22.2071 14.6732 22.0906 14.5811 21.9414C14.489 21.7922 14.4461 21.6179 14.4585 21.443C14.4708 21.2681 14.5378 21.1015 14.65 20.9667L18.8833 15.9334C19.1333 15.6334 19.5667 15.55 19.9167 15.7334L21.8833 16.7667C22.068 16.8631 22.282 16.8869 22.4833 16.8334L25.5167 16.05C26.2833 15.85 26.8667 16.7834 26.35 17.4Z" fill="#E9E9E9"/>
</svg>
