<svg width="34" height="39" viewBox="0 0 34 39" fill="none" xmlns="http://www.w3.org/2000/svg">
<path d="M1.02832 37.774C0.778562 35.0938 2.18079 32.3529 5.235 30.3084C11.675 26.0384 22.1983 26.0384 28.5917 30.3084C31.6525 32.3447 33.0542 35.0872 32.7967 37.774M16.9017 21.6984C16.6683 21.675 16.3883 21.675 16.1317 21.6984C13.4535 21.6074 10.9158 20.4776 9.05614 18.5483C7.19644 16.6189 6.16073 14.0414 6.16833 11.3617C6.16833 5.64502 10.7883 1.00168 16.5283 1.00168C17.8873 0.97717 19.2378 1.22056 20.5027 1.71797C21.7676 2.21537 22.9221 2.95705 23.9004 3.90065C24.8786 4.84424 25.6615 5.97129 26.2042 7.21742C26.7469 8.46356 27.0388 9.80439 27.0633 11.1634C27.0878 12.5223 26.8445 13.8728 26.347 15.1377C25.8496 16.4026 25.108 17.5571 24.1644 18.5354C23.2208 19.5137 22.0937 20.2965 20.8476 20.8392C19.6015 21.3819 18.2606 21.6738 16.9017 21.6984Z" stroke="#26201C" stroke-width="2" stroke-linecap="round" stroke-linejoin="round"/>
</svg>
