<svg width="41" height="40" viewBox="0 0 41 40" fill="none" xmlns="http://www.w3.org/2000/svg">
<path fill-rule="evenodd" clip-rule="evenodd" d="M27.1592 3H13.1869C7.11812 3 3.5 6.61632 3.5 12.6821V26.6308C3.5 32.7137 7.11812 36.33 13.1869 36.33H27.1426C33.2118 36.33 36.8299 32.7137 36.8299 26.6474V12.6821C36.8466 6.61632 33.2284 3 27.1592 3ZM11.5087 18.8676V18.8675C11.509 18.3398 11.5093 17.8122 11.5093 17.2846C11.5093 15.4001 11.5093 13.5157 11.5086 11.6305C11.5086 11.602 11.5082 11.5735 11.5078 11.5451C11.5074 11.5109 11.5069 11.4768 11.5071 11.4426C11.5075 11.3498 11.4597 11.3137 11.3696 11.3013C11.2057 11.2791 11.0968 11.3678 10.9889 11.4663L10.8262 11.6146C10.7381 11.6949 10.65 11.7752 10.5619 11.8555L10.5346 11.8804C10.0849 12.2904 9.63513 12.7005 9.18451 13.1095C8.73693 13.5158 8.28854 13.9213 7.84015 14.3268C7.5413 14.5971 7.24245 14.8673 6.94385 15.1378C6.79983 15.2684 6.65608 15.3992 6.51234 15.53L6.51128 15.531C6.23419 15.7831 5.95713 16.0352 5.67828 16.2854C5.57683 16.3767 5.54376 16.4846 5.58284 16.6059C5.61411 16.7036 5.69359 16.6954 5.76776 16.6877C5.78804 16.6856 5.80793 16.6836 5.82633 16.6837C6.22103 16.6866 6.61573 16.6864 7.01043 16.6861C7.17298 16.686 7.33554 16.6859 7.49809 16.686C7.77991 16.6863 7.78066 16.6863 7.78066 16.961C7.78066 17.3037 7.77995 17.6464 7.77924 17.9892V17.9901C7.77764 18.7614 7.77604 19.5328 7.78254 20.3042C7.78644 20.7626 7.78252 21.2211 7.77859 21.6797V21.6797C7.77078 22.592 7.76298 23.5043 7.81674 24.4157C7.85507 25.0613 8.0219 25.676 8.34431 26.2401C9.02857 27.4365 10.1164 27.9686 11.4428 28.0595C12.737 28.1482 13.8917 27.772 14.8765 26.9142C15.2568 26.5831 15.5721 26.1954 15.8498 25.7756C15.9005 25.6993 15.9399 25.6062 15.8821 25.5314C15.8393 25.4761 15.7813 25.5034 15.7268 25.529C15.7212 25.5316 15.7156 25.5343 15.71 25.5368C15.7066 25.5384 15.7032 25.5399 15.6998 25.5413C15.6915 25.5449 15.6833 25.5481 15.6754 25.5505C15.0843 25.7358 14.4831 25.8286 13.8631 25.7674C13.1011 25.6922 12.472 25.3796 12.0309 24.7348C11.6367 24.1587 11.5135 23.5057 11.5112 22.8255C11.5072 21.5063 11.508 20.1869 11.5087 18.8676ZM16.8853 14.9413C16.6081 14.9411 16.3309 14.9409 16.0538 14.9409H12.6344C12.3668 14.9409 12.3661 14.9417 12.3657 15.2152C12.3649 15.6222 12.3646 16.0295 12.3657 16.4365C12.3661 16.6796 12.3725 16.6856 12.622 16.6856C12.8867 16.6858 13.1513 16.6862 13.416 16.6867C14.3162 16.6883 15.2164 16.6898 16.1165 16.68C16.3375 16.6777 16.4367 16.7562 16.5197 16.9483C16.8559 17.7242 17.1996 18.4966 17.5435 19.2693L17.5439 19.2702C17.625 19.4525 17.7061 19.6348 17.7872 19.8172C18.1656 20.6683 18.544 21.5194 18.9225 22.3705L18.9273 22.3813L18.9287 22.3844C19.7311 24.1886 20.5334 25.9928 21.3347 27.7976L21.3359 27.8002C21.3831 27.9066 21.4235 27.9975 21.5696 27.996C21.7028 27.9946 21.7398 27.9118 21.7814 27.8186L21.7815 27.8183C21.7838 27.8133 21.786 27.8083 21.7883 27.8032C21.9063 27.5422 22.0241 27.281 22.1419 27.0199L22.1468 27.009C22.5782 26.0525 23.0096 25.096 23.4525 24.1448C23.5585 23.9175 23.5559 23.7356 23.457 23.5113C22.2313 20.7265 21.0123 17.9388 19.7968 15.1495C19.7295 14.9943 19.6442 14.9361 19.4732 14.9372C18.611 14.9426 17.7486 14.942 16.8863 14.9413H16.8853ZM24.8879 14.9409C25.051 14.9409 25.2141 14.9414 25.3772 14.9419C25.8088 14.9432 26.2402 14.9444 26.6717 14.9368C26.8427 14.9338 26.9295 14.992 26.9967 15.1468C27.3829 16.0383 27.7729 16.928 28.163 17.8176L28.1635 17.8187L28.1653 17.823C28.3172 18.1694 28.4691 18.5159 28.6208 18.8624C28.797 19.2652 28.9731 19.6681 29.1492 20.071L29.1567 20.0882C29.6673 21.2564 30.1779 22.4245 30.6923 23.591C30.7633 23.7521 30.772 23.8844 30.6957 24.0501C30.2016 25.1258 29.7147 26.2051 29.2278 27.2842C29.146 27.4656 29.0641 27.647 28.9822 27.8284C28.9383 27.9261 28.8868 27.9941 28.7624 27.9956C28.6335 27.9971 28.5918 27.9197 28.549 27.8235C28.0066 26.5978 27.4635 25.3724 26.9204 24.147L26.8964 24.0927C26.7375 23.7343 26.5787 23.3759 26.4199 23.0175C25.5125 20.9693 24.6054 18.921 23.6983 16.8723C23.6139 16.6816 23.5293 16.491 23.4447 16.3003C23.2755 15.9189 23.1064 15.5375 22.9385 15.1555C22.8476 14.9488 22.8547 14.9409 23.0843 14.9409C23.4856 14.9407 23.8865 14.9408 24.2872 14.9408H24.2876C24.4877 14.9409 24.6878 14.9409 24.8879 14.9409ZM33.3372 14.9408H33.3371C33.1689 14.9409 33.0008 14.9409 32.8327 14.9409C32.7729 14.9409 32.7131 14.941 32.6534 14.941C32.5546 14.9411 32.4559 14.9412 32.3572 14.9414C31.9213 14.9419 31.4853 14.9425 31.0493 14.9387C30.8945 14.9375 30.864 14.9763 30.9324 15.1213C31.1594 15.6034 31.3322 16.1065 31.478 16.6187C31.7681 17.637 31.9992 18.667 32.056 19.7289C32.0568 19.7444 32.0563 19.7608 32.0558 19.7774C32.0537 19.848 32.0514 19.9216 32.1537 19.9408C32.2618 19.9609 32.3021 19.8812 32.3415 19.8032L32.3449 19.7965C32.605 19.2845 32.8651 18.7724 33.1253 18.2604L33.1377 18.236C33.664 17.2001 34.1904 16.164 34.716 15.1277C34.8024 14.9571 34.7919 14.9417 34.5972 14.9413C34.1773 14.9405 33.7572 14.9407 33.3372 14.9408Z" fill="#E9E9E9"/>
</svg>
