<svg width="41" height="40" viewBox="0 0 41 40" fill="none" xmlns="http://www.w3.org/2000/svg">
<path d="M37.1333 19.0167C36.5667 9.35006 27.7833 1.90006 17.6667 3.56672C10.7 4.71672 5.11667 10.3667 4.03333 17.3334C3.4 21.3667 4.23333 25.1834 6.05 28.3334L4.56667 33.8501C4.23333 35.1001 5.38333 36.2334 6.61667 35.8834L12.05 34.3834C14.5167 35.8334 17.4 36.6667 20.4833 36.6667C29.8833 36.6667 37.6833 28.3834 37.1333 19.0167ZM28.6333 26.2001C28.2314 27.0246 27.5447 27.6758 26.7 28.0334C26.2 28.2501 25.65 28.3501 25.0667 28.3501C24.2167 28.3501 23.3 28.1501 22.35 27.7334C21.3375 27.2888 20.3763 26.7356 19.4833 26.0834C18.5167 25.3834 17.6167 24.6001 16.75 23.7501C15.8833 22.8834 15.1167 21.9667 14.4167 21.0167C13.7333 20.0667 13.1833 19.1167 12.7833 18.1667C12.3833 17.2167 12.1833 16.3001 12.1833 15.4334C12.1833 14.8667 12.2833 14.3167 12.4833 13.8167C12.6833 13.3001 13 12.8334 13.45 12.4167C13.9833 11.8834 14.5667 11.6334 15.1833 11.6334C15.4167 11.6334 15.65 11.6834 15.8667 11.7834C16.0833 11.8834 16.2833 12.0334 16.4333 12.2501L18.3667 14.9834C18.5167 15.2001 18.6333 15.3834 18.7 15.5667C18.7833 15.7501 18.8167 15.9167 18.8167 16.0834C18.8167 16.2834 18.75 16.4834 18.6333 16.6834C18.5167 16.8834 18.3667 17.0834 18.1667 17.2834L17.5333 17.9501C17.4333 18.0501 17.4 18.1501 17.4 18.2834C17.4 18.3501 17.4167 18.4167 17.4333 18.4834C17.4667 18.5501 17.4833 18.6001 17.5 18.6501C17.65 18.9334 17.9167 19.2834 18.2833 19.7167C19.0636 20.6337 19.9164 21.4864 20.8333 22.2667C21.2667 22.6334 21.6333 22.8834 21.9167 23.0334C21.9667 23.0501 22.0167 23.0834 22.0667 23.1001C22.1333 23.1334 22.2 23.1334 22.2833 23.1334C22.4333 23.1334 22.5333 23.0834 22.6333 22.9834L23.2667 22.3501C23.4833 22.1334 23.6833 21.9834 23.8667 21.8834C24.0667 21.7667 24.25 21.7001 24.4667 21.7001C24.6333 21.7001 24.8 21.7334 24.9833 21.8167C25.1667 21.9001 25.3667 22.0001 25.5667 22.1501L28.3333 24.1167C28.55 24.2667 28.7 24.4501 28.8 24.6501C28.8833 24.8667 28.9333 25.0667 28.9333 25.3001C28.8333 25.5834 28.7667 25.9001 28.6333 26.2001Z" fill="#E9E9E9"/>
</svg>
